<svg width="682.667" height="682.667" viewBox="0 0 512 512" xmlns="http://www.w3.org/2000/svg" xmlns:xlink="http://www.w3.org/1999/xlink" overflow="hidden"><path d="M160.008 423 90.0078 423 90.0078 197 160.008 197ZM166.992 124.996C166.992 102.367 148.633 84 126.016 84 103.312 84 85 102.367 85 124.996 85 147.633 103.312 166 126.016 166 148.633 166 166.992 147.633 166.992 124.996ZM422 298.664C422 237.996 409.184 193 338.312 193 304.258 193 281.398 210.031 272.066 227.742L272 227.742 272 197 204 197 204 423 272 423 272 310.789C272 281.402 279.48 252.934 315.906 252.934 351.836 252.934 353 286.539 353 312.656L353 423 422 423ZM512 452 512 60C512 26.9141 485.086 5.68434e-14 452 5.68434e-14L60 5.68434e-14C26.9141 5.68434e-14 0 26.9141 0 60L0 452C0 485.086 26.9141 512 60 512L452 512C485.086 512 512 485.086 512 452ZM452 40C463.027 40 472 48.9727 472 60L472 452C472 463.027 463.027 472 452 472L60 472C48.9727 472 40 463.027 40 452L40 60C40 48.9727 48.9727 40 60 40Z" fill="#198754"/></svg>