<svg width="681.333" height="681.333" viewBox="0 -71 511.999 511" xmlns="http://www.w3.org/2000/svg" xmlns:xlink="http://www.w3.org/1999/xlink" overflow="hidden"><path d="M255.98 370.492C255.938 370.492 255.891 370.492 255.844 370.492 240.395 370.387 103.816 369.141 65.1211 358.676 38.0781 351.406 16.7305 330.082 9.44141 303.035-0.683594 265.023-0.0390625 191.84 0.03125 185.996-0.0351562 180.18-0.6875 106.391 9.41016 68.0664 9.42188 68.0312 9.42969 67.9922 9.44141 67.957 16.6484 41.2188 38.4766 19.2344 65.0547 11.9453 65.1211 11.9258 65.1914 11.9102 65.2578 11.8906 103.516 1.83594 240.363 0.605469 255.844 0.5L256.121 0.5C271.609 0.605469 408.551 1.85156 446.891 12.332 473.863 19.582 495.195 40.8789 502.504 67.8906 513.008 106.242 512.035 180.191 511.93 186.434 512.004 192.582 512.617 265.109 502.551 303.312 502.543 303.352 502.531 303.387 502.523 303.422 495.23 330.469 473.887 351.793 446.812 359.07 446.777 359.082 446.738 359.09 446.703 359.102 408.449 369.152 271.598 370.383 256.121 370.492 256.074 370.492 256.027 370.492 255.98 370.492ZM48.0742 78.3242C39.1836 112.152 40.0234 185 40.0312 185.734L40.0312 186.262C39.7656 206.465 40.6992 264.973 48.0781 292.684 51.6562 305.953 62.1836 316.465 75.5352 320.055 104.086 327.777 215.324 330.207 255.98 330.492 296.742 330.207 408.145 327.844 436.484 320.43 449.793 316.828 460.285 306.352 463.887 293.066 471.273 264.949 472.199 206.727 471.93 186.652 471.93 186.441 471.93 186.23 471.934 186.02 472.301 165.574 471.578 106.383 463.922 78.4492 463.914 78.4219 463.906 78.3945 463.902 78.3672 460.309 65.0391 449.777 54.5273 436.426 50.9375 408.152 43.207 296.734 40.7852 255.98 40.5 215.246 40.7852 103.953 43.1445 75.5273 50.5508 62.4297 54.1836 51.6641 65.0703 48.0742 78.3242ZM483.211 298.219 483.223 298.219ZM205 266.492 205 104.496 345 185.496Z" fill="#198754"/></svg>