<svg width="266" height="266" xmlns="http://www.w3.org/2000/svg" xmlns:xlink="http://www.w3.org/1999/xlink" overflow="hidden"><defs><clipPath id="clip0"><rect x="455" y="279" width="266" height="266"/></clipPath><clipPath id="clip1"><rect x="469" y="294" width="237" height="237"/></clipPath><clipPath id="clip2"><rect x="469" y="294" width="237" height="237"/></clipPath><clipPath id="clip3"><rect x="469" y="294" width="237" height="237"/></clipPath></defs><g clip-path="url(#clip0)" transform="translate(-455 -279)"><path d="M455 412.5C455 339.322 514.322 280 587.5 280 660.678 280 720 339.322 720 412.5 720 485.678 660.678 545 587.5 545 514.322 545 455 485.678 455 412.5Z" fill="#198754" fill-rule="evenodd"/><g clip-path="url(#clip1)"><g clip-path="url(#clip2)"><g clip-path="url(#clip3)"><path d="M537.68 414.888 581.087 525.754C582.334 528.93 585.26 531 588.505 531 591.75 531 594.675 528.93 595.922 525.754L639.436 414.888 537.68 414.888 537.68 414.888Z" fill="#FFC477"/><path d="M537.68 414.888 581.087 525.754C582.334 528.93 585.26 531 588.505 531 591.75 531 594.675 528.93 595.922 525.754L598.331 519.618 557.327 414.888 537.68 414.888 537.68 414.888Z" fill="#FFA733"/><path d="M613.164 451.633 605.115 443.585 613.162 435.537 621.211 443.585Z" fill="#FFA733"/><path d="M605.112 470.795 597.063 462.747 605.111 454.698 613.16 462.746Z" fill="#FFA733"/><path d="M598.331 489.038 590.282 480.991 598.33 472.942 606.379 480.99Z" fill="#FFA733"/><path d="M592.854 457.461 584.805 449.413 592.852 441.364 600.901 449.412Z" fill="#FFA733"/><path d="M620.089 295.626C605.196 309.065 576.994 308.555 576.994 308.555 562.345 308.55 550.356 320.531 550.351 335.179L550.351 335.179C550.345 349.827 562.326 361.816 576.974 361.821L601.007 361.83C607.484 361.832 613.439 359.488 618.07 355.609 633.629 344.884 631.832 318.012 629.056 301.478 626.921 289.344 620.089 295.626 620.089 295.626Z" fill="#E4187A"/><path d="M600.492 358.697C588.558 358.693 578.397 350.734 575.042 339.864L593.384 339.864C595.386 339.864 597.008 338.241 597.008 336.239 597.008 334.237 595.386 332.614 593.384 332.614L573.882 332.614C573.878 332.427 573.868 332.242 573.868 332.054L573.868 332.054C573.872 321.122 580.552 311.679 590.03 307.591 582.55 308.654 576.994 308.554 576.994 308.554 562.345 308.549 550.357 320.53 550.351 335.178L550.351 335.178C550.346 349.827 562.326 361.816 576.975 361.821L601.007 361.83C605.511 361.831 609.761 360.696 613.49 358.701L600.492 358.697Z" fill="#C61469"/><path d="M609.576 393.145 567.414 393.131C553.128 393.126 541.443 381.432 541.448 367.146L541.449 365.83C541.453 351.544 553.147 339.859 567.433 339.865L609.595 339.879C623.881 339.884 635.566 351.577 635.561 365.864L635.56 367.18C635.555 381.466 623.863 393.151 609.576 393.145Z" fill="#EA3486"/><path d="M613.831 374.213 608.203 374.213C606.151 374.213 604.487 372.549 604.487 370.496 604.487 368.444 606.151 366.78 608.203 366.78L613.831 366.78C615.884 366.78 617.548 368.444 617.548 370.496 617.548 372.549 615.884 374.213 613.831 374.213Z" fill="#E4187A"/><path d="M593.832 366.963 564.966 366.963 564.966 365.83C564.971 351.653 576.487 340.045 590.624 339.872L567.434 339.864C553.148 339.859 541.455 351.543 541.45 365.83L541.449 367.146C541.445 381.432 553.128 393.125 567.415 393.13L590.932 393.13C579.094 393.126 569.049 385.093 565.955 374.213L593.832 374.213C595.834 374.213 597.457 372.59 597.457 370.588 597.457 368.586 595.834 366.963 593.832 366.963Z" fill="#E4187A"/><path d="M618.093 427.487 556.888 427.465C542.602 427.46 530.917 415.767 530.922 401.481L530.923 400.165C530.927 385.879 542.621 374.194 556.907 374.199L618.112 374.221C632.398 374.225 644.083 385.919 644.078 400.205L644.077 401.521C644.072 415.807 632.379 427.491 618.093 427.487Z" fill="#F072AE"/><path d="M625.091 414.234C624.004 414.234 622.93 413.748 622.216 412.82 620.995 411.234 621.291 408.958 622.877 407.737 624.83 406.233 625.952 403.965 625.953 401.514 625.953 399.512 627.576 397.891 629.577 397.891 629.578 397.891 629.578 397.891 629.579 397.891 631.581 397.891 633.203 399.515 633.202 401.517 633.2 406.235 631.048 410.595 627.299 413.482 626.64 413.989 625.863 414.234 625.091 414.234Z" fill="#EA3486"/><path d="M611.017 416.609C611.017 416.609 611.016 416.609 611.016 416.609L575.468 416.596C573.465 416.596 571.843 414.973 571.844 412.971 571.844 410.969 573.467 409.347 575.469 409.347 575.469 409.347 575.469 409.347 575.47 409.347L611.018 409.359C613.02 409.36 614.643 410.983 614.642 412.985 614.642 414.987 613.019 416.609 611.017 416.609Z" fill="#EA3486"/><path d="M554.44 401.459 554.44 400.143C554.445 386.249 565.505 374.82 579.254 374.207L556.908 374.199C542.622 374.194 530.929 385.878 530.924 400.165L530.923 401.481C530.918 415.767 542.602 427.46 556.889 427.465L580.406 427.444C566.119 427.438 554.434 415.746 554.44 401.459Z" fill="#EA3486"/><path d="M580.559 393.128C580.559 396.595 577.748 399.406 574.281 399.406 570.815 399.406 568.004 396.595 568.004 393.128 568.004 389.661 570.815 386.851 574.281 386.851 577.748 386.851 580.559 389.661 580.559 393.128Z" fill="#FFEB99"/><path d="M594.73 352.656C594.73 355.111 592.739 357.101 590.284 357.101 587.829 357.101 585.838 355.111 585.838 352.656 585.838 350.2 587.829 348.21 590.284 348.21 592.739 348.21 594.73 350.2 594.73 352.656Z" fill="#9CDD05"/><path d="M598.693 397.425C598.693 399.881 596.703 401.871 594.247 401.871 591.792 401.871 589.802 399.881 589.802 397.425 589.802 394.97 591.792 392.98 594.247 392.98 596.703 392.98 598.693 394.97 598.693 397.425Z" fill="#9CDD05"/><path d="M621.892 324.791C621.892 327.246 619.902 329.237 617.446 329.237 614.991 329.237 613.001 327.246 613.001 324.791 613.001 322.336 614.991 320.345 617.446 320.345 619.902 320.345 621.892 322.336 621.892 324.791Z" fill="#9CDD05"/><path d="M613.83 354.487C613.83 357.954 611.02 360.764 607.553 360.764 604.086 360.764 601.276 357.954 601.276 354.487 601.276 351.02 604.086 348.21 607.553 348.21 611.02 348.21 613.83 351.02 613.83 354.487Z" fill="#FFEB99"/><path d="M604.971 324.791C604.971 328.258 602.161 331.068 598.694 331.068 595.227 331.068 592.417 328.258 592.417 324.791 592.417 321.324 595.227 318.514 598.694 318.514 602.161 318.514 604.971 321.324 604.971 324.791Z" fill="#FFEB99"/></g></g></g></g></svg>