<svg width="514" height="514" xmlns="http://www.w3.org/2000/svg" xmlns:xlink="http://www.w3.org/1999/xlink" overflow="hidden"><defs><clipPath id="clip0"><rect x="383" y="103" width="514" height="514"/></clipPath></defs><g clip-path="url(#clip0)" transform="translate(-383 -103)"><path d="M801.09 249.269C799.872 249.324 798.695 249.354 797.507 249.371L804.124 231.289C807.285 222.653 799.011 214.163 790.33 217.17 775.046 222.453 768.33 225.788 757.302 228.66 728.467 202.661 685.901 201.533 655.498 220.281 630.544 235.671 616.964 262.26 621.518 293.573 572.664 286.852 532.706 264.111 499.704 224.342 497.389 221.555 493.853 220.097 490.256 220.453 486.661 220.807 483.473 222.923 481.743 226.108 468.025 251.359 467.173 281.647 481.296 307.364 475.755 307.546 471.17 311.894 470.774 317.529 469.444 336.393 477.963 363.136 499.094 381.497 495.527 384.327 494.058 389.115 495.502 393.504 502.814 415.767 517.997 432.983 537.705 442.558 518.014 450.937 502.124 456.285 475.998 464.903 471.87 466.262 468.942 469.955 468.546 474.299 468.15 478.641 470.361 482.809 474.174 484.9 482.595 489.517 512.339 504.936 541.741 509.561 606.796 519.799 679.654 511.566 728.794 467.168 770.503 429.49 784.122 375.662 781.271 319.644 780.845 311.185 783.15 303.123 787.77 296.941 789.798 294.227 779.899 307.465 810.383 266.654 815.766 259.263 810.235 248.888 801.09 249.269ZM770.307 283.822C762.646 294.082 758.797 307.192 759.479 320.756 762.369 377.358 747.13 421.15 714.196 450.906 676.07 485.348 614.441 498.844 545.119 487.934 532.48 485.947 519.416 481.497 508.601 477.051 530.495 469.493 547.417 462.752 574.748 449.773 584.893 444.956 581.978 429.678 570.776 428.964 550.6 427.669 533.801 417.862 523.477 401.938 528.957 401.618 534.245 400.725 539.508 399.254 550.276 396.24 550.054 380.753 539.175 378.081 513.037 371.66 498.924 352.18 494.232 334.675 498.323 335.786 503.069 336.569 510.787 337.333 521.649 338.403 527.146 324.526 518.568 317.815 497.168 301.067 488.59 275.913 494.876 251.735 532.583 291.025 579.376 312.925 634.221 316.895 641.823 317.422 648.253 310.672 645.002 299.258 634.852 263.265 656.946 245.076 666.918 238.927 687.567 226.194 720.422 224.342 743.232 245.404 748.17 250.008 754.89 251.817 761.188 250.252 766.638 248.893 771.143 247.456 775.531 245.9L771.675 256.429C769.348 262.785 773.282 269.719 779.912 270.963 777.373 274.361 774.223 278.577 770.307 283.822Z" stroke="#FFFFFF" stroke-width="10.6667" stroke-miterlimit="8" fill="#FFFFFF" fill-rule="evenodd"/><path d="M896 556 896 164C896 130.914 869.086 104 836 104L444 104C410.914 104 384 130.914 384 164L384 556C384 589.086 410.914 616 444 616L836 616C869.086 616 896 589.086 896 556ZM836 144C847.027 144 856 152.973 856 164L856 556C856 567.027 847.027 576 836 576L444 576C432.973 576 424 567.027 424 556L424 164C424 152.973 432.973 144 444 144L836 144Z" stroke="#FFFFFF" fill="#FFFFFF" fill-rule="evenodd"/></g></svg>